<?xml version="1.0" standalone="no"?>
<!DOCTYPE svg PUBLIC "-//W3C//DTD SVG 20010904//EN"
 "http://www.w3.org/TR/2001/REC-SVG-20010904/DTD/svg10.dtd">
<svg version="1.0" xmlns="http://www.w3.org/2000/svg"
 width="512.000000pt" height="512.000000pt" viewBox="0 0 512.000000 512.000000"
 preserveAspectRatio="xMidYMid meet">
<metadata>
Created by potrace 1.11, written by Peter Selinger 2001-2013
</metadata>
<g transform="translate(0.000000,512.000000) scale(0.100000,-0.100000)"
fill="#000000" stroke="none">
<path d="M3622 4714 c-357 -96 -648 -439 -748 -884 -4 -19 -8 -37 -9 -40 -1
-3 -5 -18 -9 -35 -20 -80 -35 -105 -114 -203 -47 -58 -93 -115 -103 -126 -31
-36 -52 -62 -99 -117 -84 -100 -215 -231 -335 -337 -167 -146 -293 -278 -370
-386 -20 -29 -158 -213 -173 -231 -23 -28 -87 -144 -123 -219 -69 -148 -81
-211 -85 -454 -4 -235 -7 -248 -70 -300 -52 -43 -128 -78 -281 -127 -221 -73
-374 -157 -472 -260 -118 -125 -120 -232 -4 -336 152 -136 509 -252 749 -242
110 4 114 4 114 15 0 4 5 8 11 8 20 0 49 42 49 72 0 62 -46 119 -135 166 -48
25 -56 26 -240 28 -104 1 -210 5 -234 8 -69 11 -170 63 -177 91 -8 32 -1 41
64 78 141 80 332 127 526 131 98 3 127 0 216 -19 165 -34 196 -37 400 -40 120
-1 222 -5 229 -9 6 -4 11 -4 11 1 0 4 57 9 128 10 787 12 983 20 1014 39 5 3
8 20 8 37 0 50 -41 101 -106 132 -55 26 -120 34 -288 35 l-38 0 37 41 c37 42
112 154 132 199 33 76 43 103 67 180 32 110 59 260 57 329 -1 30 2 51 6 47 4
-4 8 -74 8 -154 l0 -147 47 -120 c26 -66 71 -188 99 -272 54 -162 70 -187 144
-227 33 -17 57 -21 130 -21 81 0 95 3 139 29 l48 29 -6 45 c-3 25 -12 52 -19
60 -15 18 -71 43 -112 49 -16 2 -35 11 -42 20 -17 21 -71 199 -79 258 -4 28
-8 59 -10 70 -5 25 -6 225 -1 245 4 14 12 55 22 113 10 55 15 76 45 177 17 56
47 134 66 174 84 167 115 292 118 471 2 94 -14 181 -54 295 -29 84 -33 108
-35 210 -1 99 14 228 40 330 2 8 4 18 4 23 1 4 9 7 19 7 67 1 167 90 226 203
l40 75 -42 63 c-23 34 -42 74 -42 88 0 108 -69 216 -215 336 -111 92 -101 77
-82 123 9 23 19 55 22 72 5 30 -12 111 -24 109 -3 0 -30 -7 -59 -15z"/>
</g>
</svg>
